<svg width="25" height="24" viewBox="0 0 25 24" fill="none" xmlns="http://www.w3.org/2000/svg">
<path d="M24.3125 11.9531C24.3125 18.4805 18.8985 23.9062 12.3594 23.9062C5.83203 23.9062 0.40625 18.4805 0.40625 11.9531C0.40625 5.41406 5.82031 0 12.3476 0C18.8867 0 24.3125 5.41406 24.3125 11.9531ZM16.004 7.30078L11 15.3398L8.62109 12.2695C8.32813 11.8828 8.07031 11.7773 7.73047 11.7773C7.20313 11.7773 6.79297 12.2109 6.79297 12.7383C6.79297 13.0078 6.89844 13.2656 7.07422 13.5L10.0156 17.1094C10.3203 17.5195 10.6485 17.6836 11.0469 17.6836C11.4454 17.6836 11.7852 17.4961 12.0312 17.1094L17.539 8.4375C17.6796 8.19141 17.8321 7.92188 17.8321 7.66406C17.8321 7.11328 17.3516 6.76172 16.836 6.76172C16.5313 6.76172 16.2266 6.94922 16.004 7.30078Z" fill="black"/>
</svg>
