<svg width="22" height="22" viewBox="0 0 22 22" fill="none" xmlns="http://www.w3.org/2000/svg">
<g clip-path="url(#clip0_53_406)">
<path d="M20.8504 3.10205L12.9551 10.9986L20.8504 18.9074C21.378 19.4353 21.3745 20.3107 20.853 20.8477C20.3229 21.3936 19.4183 21.3736 18.8951 20.8503L11 12.954L3.10493 20.8503C2.57708 21.3783 1.68917 21.3747 1.15216 20.8528C0.606451 20.3227 0.626568 19.4306 1.1496 18.9074L9.04487 10.9986L1.14959 3.10205C0.622178 2.57455 0.625387 1.70014 1.14583 1.16296C1.67615 0.602836 2.58256 0.622806 3.10614 1.16033L11 9.05545L18.8925 1.16169L18.8939 1.16033C19.422 0.618129 20.3117 0.621845 20.8491 1.15778C21.3936 1.68819 21.3731 2.57924 20.8504 3.10205Z" fill="#565455" stroke="#565455" stroke-width="0.5"/>
</g>
<defs>
<clipPath id="clip0_53_406">
<rect width="22" height="22" fill="white"/>
</clipPath>
</defs>
</svg>
