<svg width="27" height="26" viewBox="0 0 27 26" fill="none" xmlns="http://www.w3.org/2000/svg">
<path d="M25.592 2.90659L25.7688 3.08335L15.8556 12.9982L25.7688 22.9285L25.769 22.9286M25.592 2.90659V25.0919C26.128 24.5401 26.128 23.6413 25.592 23.1053L25.769 22.9286M25.592 2.90659L25.7688 3.08335C26.3987 2.45333 26.4224 1.37943 25.7675 0.741787C25.1198 0.0954325 24.0472 0.0916961 23.4118 0.744298C23.4114 0.744746 23.4109 0.745195 23.4105 0.745644L13.5 10.6577L3.58817 0.7443C2.95738 0.0963953 1.86494 0.073263 1.2274 0.746916C0.599757 1.39448 0.596547 2.44864 1.23116 3.08335L1.40656 2.90798L1.23116 3.08335L11.1444 12.9982L1.23117 22.9285L1.40794 23.1053L1.23102 22.9286C0.600806 23.5591 0.577674 24.6339 1.23373 25.2712M25.592 2.90659L3.58696 25.2687M25.769 22.9286C26.4038 23.5637 26.4001 24.6188 25.7714 25.2661M25.769 22.9286L25.7714 25.2661M25.7714 25.2661C25.1341 25.9224 24.0435 25.8993 23.413 25.2687L13.5 15.3541M25.7714 25.2661L13.6768 15.1773L13.5 15.3541M13.5 15.3541L3.58696 25.2687M13.5 15.3541L13.3232 15.1773L3.58696 25.2687M3.58696 25.2687C2.9519 25.9039 1.8811 25.9003 1.23373 25.2712M1.23373 25.2712C1.23373 25.2712 1.23374 25.2712 1.23375 25.2712L1.40789 25.092L1.23373 25.2712Z" fill="#35579C" stroke="#35579C" stroke-width="0.5"/>
</svg>
