<svg width="27" height="26" viewBox="0 0 27 26" fill="none" xmlns="http://www.w3.org/2000/svg">
<path d="M1.23116 3.08335L1.40658 2.90796L1.23116 3.08335L11.1444 12.9982L1.23117 22.9285C1.23112 22.9285 1.23107 22.9286 1.23102 22.9286C0.6008 23.5591 0.577675 24.6339 1.23375 25.2712C1.88112 25.9003 2.9519 25.9039 3.58695 25.2687C3.58695 25.2687 3.58695 25.2687 3.58696 25.2687L13.5 15.3541L23.413 25.2687C24.0435 25.8993 25.1341 25.9224 25.7714 25.2661C26.4002 24.6187 26.4038 23.5636 25.7688 22.9285L15.8556 12.9982L25.7688 3.08335L25.592 2.90659L25.7688 3.08335C26.3987 2.45333 26.4224 1.37943 25.7675 0.741787C25.1198 0.0954549 24.0473 0.0916963 23.4119 0.74423C23.4114 0.744701 23.411 0.745172 23.4105 0.745643L13.5 10.6577L3.58817 0.7443C2.95738 0.0963951 1.86493 0.073263 1.2274 0.746917C0.599757 1.39448 0.596547 2.44864 1.23116 3.08335Z" fill="#35579C" stroke="#35579C" stroke-width="0.5"/>
</svg>
