<svg width="41" height="54" viewBox="0 0 41 54" fill="none" xmlns="http://www.w3.org/2000/svg">
<path d="M16.8052 53C26.2929 53 32.6105 46.8002 32.6105 37.5121C32.6105 32.9367 30.8315 28.384 29.4859 25.3415C27.0455 19.828 23.2141 13.7655 19.8842 8.59524C19.0859 7.38276 18.1508 6.67356 16.8052 6.67356C15.4596 6.67356 14.5245 7.38276 13.7263 8.59524C10.3965 13.7655 6.56491 19.828 4.12456 25.3415C2.80175 28.384 1 32.9367 1 37.5121C1 46.8002 7.31752 53 16.8052 53ZM16.8052 49.2481C9.55261 49.2481 4.74035 44.5583 4.74035 37.5121C4.74035 33.7602 6.17719 30.1228 7.45438 27.1487C10.0088 21.132 13.3842 16.1905 16.5772 11.3634C16.7368 11.1346 16.9193 11.1346 17.0561 11.3634C20.2263 16.1905 23.6245 21.132 26.1334 27.1258C27.4332 30.1228 28.8929 33.7602 28.8929 37.5121C28.8929 44.5583 24.0579 49.2481 16.8052 49.2481ZM33.0437 14.978C36.9439 14.978 40 11.9125 40 8.00045C40 4.06555 36.9439 1 33.0437 1C29.121 1 26.0649 4.06555 26.0649 8.00045C26.0649 11.9125 29.121 14.978 33.0437 14.978ZM33.0437 11.7523C30.9455 11.7523 29.2806 10.1051 29.2806 8.00045C29.2806 5.87285 30.9455 4.22569 33.0437 4.22569C35.1421 4.22569 36.7841 5.87285 36.7841 8.00045C36.7841 10.1051 35.1421 11.7523 33.0437 11.7523Z" fill="#35579C" stroke="#CDE1F0" stroke-width="0.5"/>
</svg>
