<svg width="27" height="19" viewBox="0 0 27 19" fill="none" xmlns="http://www.w3.org/2000/svg">
<path d="M24.2723 0.703125H2.7278C1.25808 0.703125 0.0625 1.89865 0.0625 3.36843V15.6312C0.0625 17.1009 1.25808 18.2965 2.7278 18.2965H24.2723C25.742 18.2965 26.9375 17.1009 26.9375 15.6312V3.36843C26.9376 1.89865 25.742 0.703125 24.2723 0.703125ZM25.1607 3.36843V15.6312C25.1607 15.7714 25.1213 15.8994 25.0631 16.0173L18.782 9.73576L25.1589 3.35884C25.1589 3.36238 25.1607 3.36494 25.1607 3.36843ZM1.83937 15.6311V3.36843C1.83937 3.36494 1.84117 3.36244 1.84117 3.3589L8.21808 9.73581L1.93658 16.0173C1.87885 15.8993 1.83937 15.7714 1.83937 15.6311ZM13.7743 12.2311C13.6277 12.3776 13.3725 12.3776 13.2259 12.2311L3.47524 2.47999H23.5253L13.7743 12.2311ZM9.47438 10.9922L11.9696 13.4874C12.3786 13.8964 12.9222 14.1216 13.5001 14.1216C14.0779 14.1216 14.6215 13.8964 15.0306 13.4874L17.5258 10.9922L23.0528 16.5196H3.94685L9.47438 10.9922Z" fill="black"/>
</svg>
