<svg width="23" height="23" viewBox="0 0 23 23" fill="none" xmlns="http://www.w3.org/2000/svg">
<path d="M17.0782 22.9613C19.1289 22.9613 20.4766 22.4105 21.6602 21.0746C21.7539 20.9808 21.8477 20.8753 21.9297 20.7816C22.6329 19.9964 22.961 19.223 22.961 18.4847C22.961 17.641 22.4688 16.8558 21.4258 16.1292L18.0157 13.762C16.9727 13.0355 15.7305 12.9535 14.7461 13.9261L13.8438 14.8285C13.5743 15.098 13.3399 15.1097 13.0821 14.9456C12.4493 14.5472 11.1719 13.4339 10.3047 12.5667C9.39062 11.6644 8.51172 10.6566 8.04297 9.91826C7.89062 9.64873 7.90234 9.42607 8.17187 9.15654L9.0625 8.2542C10.0469 7.26982 9.96484 6.02764 9.23828 4.98467L6.87109 1.57451C6.14453 0.531543 5.35937 0.0510741 4.51562 0.0393554C3.77734 0.0276366 3.0039 0.367481 2.21875 1.0706C2.11328 1.16435 2.01953 1.24638 1.92578 1.32842C0.589843 2.52373 0.0390625 3.87138 0.0390625 5.89873C0.0390625 9.25029 2.10156 13.3285 5.88672 17.1136C9.64844 20.8753 13.7383 22.9613 17.0782 22.9613ZM17.0899 21.1566C14.1016 21.2152 10.2696 18.9183 7.23437 15.8949C4.17578 12.848 1.77344 8.88701 1.83203 5.89873C1.85547 4.60967 2.3125 3.49638 3.22656 2.69951C3.30859 2.6292 3.36718 2.5706 3.44922 2.51201C3.80078 2.20732 4.17578 2.04326 4.51562 2.04326C4.85547 2.04326 5.16015 2.17217 5.38281 2.52373L7.65625 5.93388C7.90234 6.29717 7.92578 6.70732 7.5625 7.0706L6.53125 8.10185C5.72265 8.91045 5.78125 9.89482 6.36718 10.68C7.03515 11.5824 8.19531 12.8949 9.09765 13.7855C9.98828 14.6878 11.4063 15.9535 12.3203 16.6331C13.1055 17.2191 14.0899 17.2777 14.8985 16.4691L15.9297 15.4378C16.293 15.0746 16.6914 15.098 17.0664 15.3324L20.4766 17.6058C20.8164 17.8402 20.9571 18.1331 20.9571 18.4847C20.9571 18.8246 20.793 19.1996 20.4883 19.5511C20.418 19.6331 20.3711 19.6917 20.3008 19.7738C19.5039 20.6878 18.3907 21.1331 17.0899 21.1566Z" fill="black" fill-opacity="0.85"/>
</svg>
