<svg width="38" height="38" viewBox="0 0 38 38" fill="none" xmlns="http://www.w3.org/2000/svg">
<path d="M18.7338 38C28.9824 38 37.4677 29.3756 37.4677 19C37.4677 8.6059 28.9641 0 18.7155 0C8.48535 0 0 8.6059 0 19C0 29.3756 8.50371 38 18.7338 38ZM18.7338 34.8335C10.0649 34.8335 3.14069 27.7923 3.14069 19C3.14069 10.2079 10.0465 3.16668 18.7155 3.16668C27.3846 3.16668 34.3455 10.2079 34.3455 19C34.3455 27.7923 27.4029 34.8335 18.7338 34.8335Z" fill="#565455"/>
<path d="M15.5201 29.4317H22.9953C23.7483 29.4317 24.336 28.873 24.336 28.1092C24.336 27.3828 23.7483 26.8053 22.9953 26.8053H20.7179V17.3238C20.7179 16.3179 20.2219 15.6474 19.2853 15.6474H15.8324C15.0793 15.6474 14.4916 16.2248 14.4916 16.9514C14.4916 17.715 15.0793 18.2739 15.8324 18.2739H17.7976V26.8053H15.5201C14.7671 26.8053 14.1794 27.3828 14.1794 28.1092C14.1794 28.873 14.7671 29.4317 15.5201 29.4317ZM18.569 12.5552C19.9097 12.5552 20.9566 11.4748 20.9566 10.115C20.9566 8.7552 19.9097 7.6748 18.569 7.6748C17.2466 7.6748 16.1813 8.7552 16.1813 10.115C16.1813 11.4748 17.2466 12.5552 18.569 12.5552Z" fill="#565455"/>
</svg>
