<svg width="28" height="29" viewBox="0 0 28 29" fill="none" xmlns="http://www.w3.org/2000/svg">
<path d="M20.7843 17.8395V23.3984C20.7843 24.9599 20.7843 25.7407 20.4804 26.3371C20.2131 26.8617 19.7865 27.2883 19.2619 27.5556C18.6655 27.8595 17.8847 27.8595 16.3232 27.8595H9.03917C7.47766 27.8595 6.6969 27.8595 6.10048 27.5556C5.57586 27.2883 5.14933 26.8617 4.88202 26.3371C4.57812 25.7407 4.57812 24.9599 4.57812 23.3984V5.60069C4.57812 4.03918 4.57812 3.25843 4.88202 2.66201C5.14933 2.13738 5.57586 1.71085 6.10048 1.44354C6.6969 1.13965 7.47766 1.13965 9.03917 1.13965H16.3232C17.8847 1.13965 18.6655 1.13965 19.2619 1.44354C19.7865 1.71085 20.2131 2.13738 20.4804 2.66201C20.7843 3.25843 20.7843 4.03918 20.7843 5.6007V11.1596" stroke="white" stroke-width="1.97494"/>
<path d="M9.05078 14.5001H26.4219M9.05078 14.5001L14.6271 8.92383M9.05078 14.5001L14.6271 20.0764" stroke="white" stroke-width="2.20729" stroke-linecap="round" stroke-linejoin="round"/>
</svg>
