<svg width="61" height="68" viewBox="0 0 61 68" fill="none" xmlns="http://www.w3.org/2000/svg">
<path d="M4.90429 0C2.69515 0 0.904297 1.79086 0.904297 4V63.5467C0.904297 65.7558 2.69516 67.5467 4.9043 67.5467H56.0957C58.3048 67.5467 60.0957 65.7558 60.0957 63.5467V18.6986H45.3971C43.1879 18.6986 41.3971 16.9078 41.3971 14.6986V0H4.90429Z" fill="#E2574C"/>
<path d="M60.0957 18.6986L41.3971 0V14.6986C41.3971 16.9078 43.1879 18.6986 45.3971 18.6986H60.0957Z" fill="#B53629"/>
<path d="M20.7277 31.3261C21.8529 31.3261 22.7998 31.7049 23.5685 32.4624C24.3372 33.2199 24.7215 34.1502 24.7215 35.2531C24.7215 36.3559 24.3372 37.2862 23.5685 38.0437C22.7998 38.8013 21.8529 39.18 20.7277 39.18H18.6723V43.0234H16.3663V31.3261H20.7277ZM20.7277 37.0244C21.2179 37.0244 21.6245 36.8573 21.9476 36.5231C22.2707 36.1777 22.4322 35.7544 22.4322 35.2531C22.4322 34.7406 22.2707 34.3173 21.9476 33.9831C21.6245 33.6488 21.2179 33.4817 20.7277 33.4817H18.6723V37.0244H20.7277ZM30.8684 31.3261C32.4726 31.3261 33.8094 31.8887 34.8789 33.0138C35.9595 34.139 36.4998 35.526 36.4998 37.1748C36.4998 38.8235 35.9595 40.2105 34.8789 41.3357C33.8094 42.4609 32.4726 43.0234 30.8684 43.0234H26.2229V31.3261H30.8684ZM30.8684 40.8177C31.8822 40.8177 32.7066 40.4834 33.3416 39.815C33.9766 39.1355 34.294 38.2554 34.294 37.1748C34.294 36.0942 33.9766 35.2196 33.3416 34.5512C32.7066 33.8717 31.8822 33.5319 30.8684 33.5319H28.5289V40.8177H30.8684ZM45.1206 33.5319H40.4417V36.3058H44.9869V38.5116H40.4417V43.0234H38.1356V31.3261H45.1206V33.5319Z" fill="white"/>
</svg>
