<svg width="42" height="38" viewBox="0 0 42 38" fill="none" xmlns="http://www.w3.org/2000/svg">
<path d="M7.87207 38C10.3208 38 15.3269 35.5331 19.009 32.903C31.6515 33.2477 41.1379 25.9924 41.1379 16.4877C41.1379 7.36419 31.9962 0 20.569 0C9.14175 0 0 7.36419 0 16.4877C0 22.4372 3.80907 27.7154 9.5408 30.3637C8.72457 31.9417 7.20094 34.082 6.38472 35.1522C5.42339 36.4218 6.00382 38 7.87207 38ZM9.7766 34.989C9.6315 35.0434 9.57708 34.9345 9.66776 34.8076C10.6835 33.5561 12.1346 31.6696 12.7513 30.5087C13.2592 29.5657 13.1322 28.7312 11.9714 28.187C6.27589 25.5389 3.01097 21.3126 3.01097 16.4877C3.01097 9.05107 10.7924 2.99283 20.569 2.99283C30.3637 2.99283 38.145 9.05107 38.145 16.4877C38.145 23.9064 30.3637 29.9647 20.569 29.9647C20.2062 29.9647 19.6439 29.9466 18.9184 29.9283C18.1566 29.9283 17.5762 30.1642 16.8869 30.7082C14.6558 32.3226 11.4272 34.3179 9.7766 34.989Z" fill="#565455"/>
<path d="M29.0396 19.2806C30.4906 19.2806 31.6696 18.1016 31.6696 16.6506C31.6696 15.1995 30.4906 14.0205 29.0396 14.0205C27.5885 14.0205 26.4095 15.1995 26.4095 16.6506C26.4095 18.1016 27.5885 19.2806 29.0396 19.2806Z" fill="#565455"/>
<path d="M20.5691 19.2806C22.0201 19.2806 23.1991 18.1016 23.1991 16.6506C23.1991 15.1995 22.0201 14.0205 20.5691 14.0205C19.118 14.0205 17.9389 15.1995 17.9389 16.6506C17.9389 18.1016 19.118 19.2806 20.5691 19.2806Z" fill="#565455"/>
<path d="M12.1164 19.2806C13.5494 19.2806 14.7284 18.1016 14.7284 16.6506C14.7284 15.1995 13.5313 14.0205 12.1164 14.0205C10.6654 14.0205 9.48639 15.1995 9.48639 16.6506C9.48639 18.1016 10.6654 19.2806 12.1164 19.2806Z" fill="#565455"/>
</svg>
