<svg width="46" height="56" viewBox="0 0 46 56" fill="none" xmlns="http://www.w3.org/2000/svg">
<path d="M30.5221 2.44244L30.4986 6.03673L33.3516 4.38147C33.9648 4.02677 34.6722 4.16865 35.026 4.75982C35.3795 5.39826 35.1201 6.06038 34.4599 6.46237L30.4748 8.77972L30.4042 17.0087L37.4311 12.8706L37.4547 8.28315C37.4547 7.47916 37.9028 6.93529 38.6573 6.93529C39.3175 6.93529 39.8127 7.47916 39.8127 8.2122V11.4754L43.0195 9.60736C43.6562 9.22902 44.458 9.37089 44.8115 10.033C45.2126 10.7187 44.9532 11.4518 44.2222 11.8774L41.0625 13.6746L43.9155 15.3298C44.5051 15.6609 44.7409 16.3703 44.4343 16.9851C44.0334 17.5999 43.3262 17.7181 42.6895 17.3398L38.6809 15.0224L31.5832 19.0424L38.61 23.0387L42.6187 20.7448C43.2789 20.3665 44.0099 20.4611 44.3636 21.0996C44.6938 21.6908 44.458 22.4001 43.8449 22.7548L40.9916 24.4101L44.1986 26.2546C44.9059 26.6329 45.2126 27.3896 44.8115 28.0753C44.4107 28.7611 43.6326 28.8558 42.9251 28.4536L39.7654 26.5857L39.7419 29.8726C39.7419 30.5346 39.2467 31.1258 38.5865 31.1258C37.8555 31.102 37.3838 30.5346 37.3838 29.8015V25.1906L30.4042 21.076L30.4748 29.2577L34.4364 31.575C35.0966 31.977 35.3795 32.6392 35.0022 33.2777C34.6487 33.8687 33.9412 34.0105 33.3281 33.656L30.4986 32.0244L30.5221 35.6422C30.5221 36.4463 30.0269 37.0847 29.2488 37.0847C28.447 37.0847 27.9755 36.4463 27.9755 35.6422L27.9991 32.0244L25.1694 33.656C25.1201 33.6845 25.0698 33.7099 25.0191 33.7309C24.5748 33.1578 24.0673 32.613 23.5136 32.0906C23.6391 31.894 23.8262 31.7181 24.0611 31.575L28.0226 29.2577L28.0934 21.076L23.5045 23.772L23.5077 20.9729L26.8908 19.0424L23.5119 17.1223L23.5152 14.3216L28.0934 17.0087L28.0226 8.77972L24.0375 6.46237C23.3773 6.06038 23.118 5.39826 23.4717 4.75982C23.8017 4.16865 24.5327 4.02677 25.1458 4.38147L27.9991 6.03673L27.9755 2.44244C27.9755 1.63846 28.447 1 29.2488 1C30.0269 1 30.5221 1.63846 30.5221 2.44244Z" fill="#35579C" stroke="#CDE1F0" stroke-width="0.5"/>
<path d="M13.356 55.4342C20.147 55.4342 25.6412 49.9009 25.6412 43.0907C25.6412 39.4965 24.1791 36.3515 21.3496 33.7977C20.8544 33.3484 20.7365 33.0646 20.7365 32.3552L20.7601 10.9787C20.7601 6.17846 17.7418 2.8916 13.356 2.8916C8.92291 2.8916 5.88107 6.17846 5.88107 10.9787L5.90466 32.3552C5.90466 33.0646 5.81033 33.3484 5.29157 33.7977C2.48554 36.3515 1 39.4965 1 43.0907C1 49.9009 6.51773 55.4342 13.356 55.4342ZM13.356 52.0055C8.42771 52.0055 4.46626 47.9856 4.46626 43.0907C4.46626 40.135 5.85749 37.4629 8.35699 35.7841C9.08797 35.2875 9.37092 34.8381 9.37092 33.8686V11.1206C9.37092 8.28302 10.998 6.36764 13.356 6.36764C15.6668 6.36764 17.2939 8.28302 17.2939 11.1206V33.8686C17.2939 34.8381 17.5768 35.2875 18.3078 35.7841C20.8074 37.4629 22.1986 40.135 22.1986 43.0907C22.1986 47.9856 18.2135 52.0055 13.356 52.0055Z" fill="#35579C" stroke="#CDE1F0" stroke-width="0.5"/>
<path d="M13.3326 48.8134C16.4923 48.8134 19.0391 46.2596 19.0391 43.0672C19.0391 40.8446 17.7894 39.0237 15.9736 38.0305C15.2191 37.6285 14.9597 37.3448 14.9597 36.1862V31.4567C14.9597 30.3217 14.2287 29.5886 13.3326 29.5886C12.413 29.5886 11.7056 30.3217 11.7056 31.4567V36.1862C11.7056 37.3448 11.4462 37.6285 10.6917 38.0305C8.87602 39.0237 7.62628 40.8446 7.62628 43.0672C7.62628 46.2596 10.1729 48.8134 13.3326 48.8134Z" fill="#35579C" stroke="#CDE1F0" stroke-width="0.5"/>
</svg>
