<svg width="150" height="37" viewBox="0 0 150 37" fill="none" xmlns="http://www.w3.org/2000/svg">
<g clip-path="url(#clip0_136_1520)">
<mask id="mask0_136_1520" style="mask-type:luminance" maskUnits="userSpaceOnUse" x="0" y="0" width="150" height="37">
<path d="M149.5 0H0V37H149.5V0Z" fill="white"/>
</mask>
<g mask="url(#mask0_136_1520)">
<path fill-rule="evenodd" clip-rule="evenodd" d="M18.3939 0C25.5689 0 31.8307 4.19858 34.8312 10.234C32.222 7.60993 28.439 5.90426 24.2644 5.90426C16.4372 5.90426 10.1754 10.234 10.1754 18.5C10.1754 23.0922 13.8281 26.766 18.3939 26.766C22.9599 26.766 26.6126 23.0922 26.6126 18.5C26.6126 15.351 24.9167 12.5957 22.3076 11.2837C23.6121 10.6277 25.1776 10.234 26.8735 10.234C31.9612 10.234 36.788 14.8263 36.788 18.5V37C33.6571 37 30.7871 35.8191 28.5694 33.9823C25.6994 35.9503 22.1771 37 18.5244 37C8.21859 37 0 28.734 0 18.5C0 8.26596 8.21859 0 18.3939 0Z" fill="#138BD2"/>
<path fill-rule="evenodd" clip-rule="evenodd" d="M52.0493 13.3832C52.832 13.3832 53.4843 13.5144 54.1366 13.6456C54.7888 13.7768 55.3106 14.0393 55.702 14.4329C56.0933 14.8264 56.4847 15.2201 56.7456 15.8761C57.0065 16.401 57.137 17.1882 57.137 17.9754V24.6669H53.0929V23.7484H52.9624C52.1797 24.5357 51.1361 24.9293 49.962 24.9293C49.5706 24.9293 49.1792 24.9293 48.788 24.7981C48.3966 24.6669 48.0052 24.5357 47.7443 24.2733C47.4833 24.0109 47.2225 23.7484 46.9616 23.2236C46.8311 22.83 46.7007 22.3052 46.7007 21.6492C46.7007 20.5996 47.0921 19.8123 47.7443 19.1563C48.3966 18.5003 49.5706 18.2378 51.0056 18.2378H52.9624V17.8442C52.9624 17.713 52.9624 17.5818 52.9624 17.4506C52.9624 17.3194 52.8319 17.1882 52.8319 17.057C52.7015 16.9257 52.5711 16.7946 52.4407 16.7946C52.1797 16.6633 52.0493 16.6633 51.6579 16.6633C51.397 16.6633 51.1361 16.6633 50.8752 16.6633C50.6143 16.6633 50.4838 16.7946 50.2229 16.7946C49.962 16.7946 49.8315 16.9257 49.7011 17.057C49.5706 17.1882 49.3097 17.3194 49.0489 17.4506L47.4833 14.8264C48.1356 14.1704 48.7879 13.7768 49.5706 13.6456C50.2229 13.5144 51.0056 13.3832 52.0493 13.3832ZM50.7448 21.2556C50.7448 21.3867 50.7448 21.6492 50.8752 21.7804C51.0056 21.9116 51.2665 22.0427 51.6579 22.0427C51.9188 22.0427 52.3102 21.9116 52.5711 21.7804C52.8319 21.6492 52.9624 21.3867 52.9624 20.9931V20.4683H51.7884C51.397 20.4683 51.2665 20.5996 51.0056 20.7307C50.8751 20.9931 50.7448 21.1243 50.7448 21.2556ZM64.5729 14.8264C64.8337 14.564 65.0946 14.3017 65.3555 14.1704C65.6164 14.0393 65.8774 13.908 66.1383 13.7768C66.3992 13.6456 66.66 13.6456 66.7905 13.5144C67.0514 13.5144 67.1819 13.5144 67.3123 13.5144C68.6169 13.5144 69.5301 13.908 70.1823 14.564C70.8346 15.2201 71.0955 16.2697 71.0955 17.5818V24.7981H66.921V18.8939C66.921 18.369 66.7905 18.1066 66.66 17.8442C66.5296 17.5818 66.1383 17.4506 65.7469 17.4506C65.3555 17.4506 64.9641 17.5818 64.8337 17.9754C64.5729 18.2378 64.5729 18.6314 64.5729 19.1563V24.9293H60.3983V14.0393H64.4424L64.5729 14.8264ZM79.4445 16.5321V20.3371C79.4445 20.5996 79.4445 20.7307 79.575 20.862C79.575 20.9931 79.7055 21.1243 79.8359 21.1243C79.9664 21.1243 80.0968 21.2556 80.2273 21.2556C80.3577 21.2556 80.4881 21.2556 80.7491 21.2556H81.5318V24.5357H79.1836C77.8791 24.5357 76.9659 24.2733 76.4441 23.6173C75.7918 22.9613 75.5309 22.0427 75.5309 20.5996V16.401H74.3569V13.5144H75.6614V10.7591H79.7055V13.7768H81.6623V16.6633H79.4445V16.5321ZM89.7504 13.3832C90.5332 13.3832 91.1854 13.5144 91.8377 13.6456C92.4897 13.7768 93.012 14.0393 93.4033 14.4329C93.7946 14.8264 94.1859 15.2201 94.447 15.8761C94.7073 16.401 94.8383 17.1882 94.8383 17.9754V24.6669H90.794V23.7484H90.6636C89.8808 24.5357 88.8372 24.9293 87.6631 24.9293C87.2718 24.9293 86.8804 24.9293 86.4891 24.7981C86.0977 24.6669 85.7063 24.5357 85.4455 24.2733C85.1845 24.0109 84.9236 23.7484 84.6627 23.2236C84.5322 22.83 84.4018 22.3052 84.4018 21.6492C84.4018 20.5996 84.7932 19.8123 85.4455 19.1563C86.0977 18.5003 87.2718 18.2378 88.7068 18.2378H90.6636V17.8442C90.6636 17.713 90.6636 17.5818 90.6636 17.4506C90.6636 17.3194 90.5332 17.1882 90.5332 17.057C90.4027 16.9257 90.2722 16.7946 90.1418 16.7946C89.8808 16.6633 89.7504 16.6633 89.359 16.6633C89.0981 16.6633 88.8373 16.6633 88.5763 16.6633C88.3154 16.6633 88.1849 16.7946 87.924 16.7946C87.6631 16.7946 87.5326 16.9257 87.4022 17.057C87.2718 17.1882 87.0109 17.3194 86.75 17.4506L85.1845 14.8264C85.8367 14.1704 86.4891 13.7768 87.2718 13.6456C87.924 13.5144 88.8373 13.3832 89.7504 13.3832ZM88.4459 21.2556C88.4459 21.3867 88.4459 21.6492 88.5763 21.7804C88.7068 21.9116 88.9677 22.0427 89.359 22.0427C89.6199 22.0427 90.0113 21.9116 90.2722 21.7804C90.5331 21.6492 90.6636 21.3867 90.6636 20.9931V20.4683H89.4895C89.0981 20.4683 88.9677 20.5996 88.7068 20.7307C88.5763 20.9931 88.4459 21.1243 88.4459 21.2556ZM102.665 15.0889C103.057 14.564 103.448 14.1704 103.97 13.908C104.492 13.6456 105.014 13.5144 105.535 13.5144C105.796 13.5144 106.187 13.5144 106.579 13.6456C106.97 13.7768 107.231 13.7768 107.622 13.908L106.579 17.9754C106.318 17.8442 105.926 17.713 105.535 17.713C105.144 17.5818 104.883 17.5818 104.492 17.5818C103.97 17.5818 103.579 17.713 103.187 17.9754C102.796 18.2378 102.665 18.7626 102.665 19.4187V24.7981H98.4909V13.908H102.665V15.0889ZM118.581 23.2236C117.929 23.8797 117.146 24.2733 116.363 24.5357C115.58 24.7981 114.797 24.9293 113.885 24.9293C113.101 24.9293 112.45 24.7981 111.797 24.5357C111.145 24.2733 110.623 24.0109 110.231 23.486C109.84 22.9613 109.449 22.4364 109.188 21.7804C108.927 21.1243 108.796 20.2059 108.796 19.2874C108.796 18.2378 108.927 17.4506 109.188 16.6633C109.449 16.0073 109.84 15.3513 110.362 14.9577C110.884 14.4329 111.406 14.1704 112.058 13.908C112.71 13.6456 113.362 13.5144 114.015 13.5144C114.797 13.5144 115.58 13.6456 116.363 13.908C117.015 14.1704 117.668 14.564 118.32 15.2201L116.232 17.9754C115.841 17.5818 115.45 17.3194 115.189 17.1882C114.928 17.057 114.667 17.057 114.536 17.057C114.276 17.057 114.145 17.057 113.885 17.1882C113.624 17.1882 113.493 17.3194 113.362 17.4506C113.232 17.5818 113.101 17.8442 112.971 18.1066C112.841 18.369 112.841 18.7626 112.841 19.1563C112.841 19.9435 112.971 20.5996 113.232 20.862C113.493 21.1243 113.885 21.3867 114.536 21.3867C114.667 21.3867 114.928 21.3867 115.319 21.2556C115.711 21.1243 116.102 20.862 116.494 20.4683L118.581 23.2236ZM126.408 16.5321V20.3371C126.408 20.5996 126.408 20.7307 126.539 20.862C126.539 20.9931 126.669 21.1243 126.799 21.1243C126.93 21.1243 127.06 21.2556 127.19 21.2556C127.321 21.2556 127.451 21.2556 127.713 21.2556H128.495V24.5357H126.147C124.843 24.5357 123.929 24.2733 123.408 23.6173C122.755 22.9613 122.494 22.0427 122.494 20.5996V16.401H121.32V13.5144H122.625V10.7591H126.669V13.7768H128.625V16.6633H126.408V16.5321ZM132.018 24.6669V13.7768H136.192V24.6669H132.018ZM132.018 12.2023V8.79102H136.192V12.2023H132.018ZM149.498 21.2556C149.498 21.9116 149.368 22.4364 149.107 22.83C148.846 23.2236 148.454 23.6173 148.063 24.0109C147.672 24.2733 147.15 24.5357 146.498 24.6669C145.845 24.7981 145.193 24.9293 144.541 24.9293C144.149 24.9293 143.628 24.9293 143.237 24.7981C142.714 24.7981 142.323 24.6669 141.802 24.5357C141.279 24.4045 140.888 24.2733 140.497 24.0109C140.105 23.7484 139.584 23.486 139.193 23.2236L140.888 20.7307C141.671 21.2556 142.323 21.6492 142.845 21.7804C143.367 21.9116 143.889 22.0427 144.28 22.0427C144.672 22.0427 144.932 22.0427 145.193 21.9116C145.454 21.9116 145.454 21.6492 145.454 21.518C145.454 21.3867 145.324 21.2556 145.193 21.1243C145.063 21.1243 144.802 20.9931 144.541 20.9931C144.019 20.862 143.498 20.862 142.975 20.7307C142.454 20.5996 141.932 20.3371 141.54 20.0747C141.149 19.8123 140.758 19.4187 140.497 19.025C140.236 18.6314 140.105 17.9754 140.105 17.3194C140.105 16.6633 140.236 16.1386 140.497 15.7449C140.758 15.3513 141.019 14.9577 141.54 14.564C141.932 14.3017 142.454 14.0393 142.975 13.908C143.498 13.7768 144.149 13.6456 144.672 13.6456C145.584 13.6456 146.367 13.7768 147.15 13.908C147.933 14.1704 148.716 14.4329 149.498 14.9577L147.933 17.5818C147.281 17.1882 146.628 16.9257 146.237 16.7946C145.715 16.6633 145.324 16.6633 144.932 16.6633C144.672 16.6633 144.41 16.6633 144.28 16.7946C144.149 16.9257 144.149 17.057 144.149 17.1882C144.149 17.4506 144.28 17.5818 144.672 17.713C145.063 17.8442 145.454 17.9754 145.845 17.9754C146.367 18.1066 146.889 18.2378 147.411 18.369C147.933 18.5003 148.324 18.7626 148.716 19.025C149.107 19.2874 149.368 19.5499 149.628 19.9435C149.368 20.2059 149.498 20.5996 149.498 21.2556Z" fill="#565455"/>
</g>
</g>
<defs>
<clipPath id="clip0_136_1520">
<rect width="149.5" height="37" fill="white"/>
</clipPath>
</defs>
</svg>
